<svg width="487" height="487" viewBox="0 0 487 487" fill="none" xmlns="http://www.w3.org/2000/svg">
<rect width="487" height="487" rx="85" fill="black"/>
<g filter="url(#filter0_i_709_277)">
<path d="M256.351 146.359L256.951 146.319C261.241 145.779 269.241 144.789 279.391 143.499C292.771 141.809 301.301 140.719 312.481 140.539C329.481 140.259 333.101 142.399 335.061 143.929C342.521 149.739 343.101 160.019 343.231 162.379C344.421 183.519 322.311 197.529 320.881 198.399C315.391 201.769 310.231 203.369 306.801 204.189C311.571 208.389 318.821 216.189 320.221 227.059C322.611 245.639 306.311 260.839 294.381 271.659C273.191 290.879 251.271 299.029 238.771 303.549C208.921 314.339 172.291 326.709 129.641 339.269L256.351 146.369V146.359Z" fill="white" stroke="white" stroke-miterlimit="10"/>
<path d="M321.33 127.39C321.65 125.34 320.68 123.23 318.85 122C299.58 123.49 249.35 127.39 249.35 127.39C194.23 208.62 139.11 289.85 84 371.08C122.43 359.27 160.85 347.46 199.28 335.65C201.27 334.51 202.37 332.62 202.01 331.3C201.55 329.64 198.59 328.22 195.31 329.6L103.66 356.25C153.93 282.64 204.2 209.04 254.46 135.43C275.88 134.01 297.29 132.6 318.71 131.18C319 131.01 320.96 129.8 321.33 127.4V127.39Z" fill="white"/>
<path d="M208.219 275.069C216.069 264.819 223.929 254.569 231.779 244.309C239.039 242.549 244.789 241.729 248.789 241.309C249.919 241.189 251.549 241.039 254.809 240.739C260.199 240.249 264.589 239.869 267.539 239.619C267.939 241.449 268.269 244.259 267.329 247.319C265.909 251.939 262.229 254.999 255.369 258.789C246.289 263.809 238.509 266.319 232.879 268.049C226.259 270.079 217.939 272.509 208.219 275.069Z" fill="black" stroke="white" stroke-width="0.75" stroke-miterlimit="10"/>
<path d="M250.891 206.109C258.921 204.829 266.951 203.559 274.981 202.279C278.101 201.349 283.461 199.189 287.461 194.059C290.451 190.229 294.201 182.779 291.661 179.739C291.361 179.379 291.031 179.149 290.771 178.999C285.511 178.949 279.491 179.299 272.911 180.449C270.201 180.919 267.651 181.489 265.261 182.099C260.471 190.099 255.691 198.099 250.901 206.099L250.891 206.109Z" fill="black" stroke="white" stroke-miterlimit="10"/>
<path d="M244 80.5C332.013 80.5 403.5 153.176 403.5 243C403.5 332.824 332.013 405.5 244 405.5C155.987 405.5 84.5 332.824 84.5 243C84.5 153.176 155.987 80.5 244 80.5Z" stroke="white" stroke-width="9"/>
</g>
<defs>
<filter id="filter0_i_709_277" x="80" y="76" width="330" height="335" filterUnits="userSpaceOnUse" color-interpolation-filters="sRGB">
<feFlood flood-opacity="0" result="BackgroundImageFix"/>
<feBlend mode="normal" in="SourceGraphic" in2="BackgroundImageFix" result="shape"/>
<feColorMatrix in="SourceAlpha" type="matrix" values="0 0 0 0 0 0 0 0 0 0 0 0 0 0 0 0 0 0 127 0" result="hardAlpha"/>
<feOffset dx="2" dy="1"/>
<feGaussianBlur stdDeviation="1"/>
<feComposite in2="hardAlpha" operator="arithmetic" k2="-1" k3="1"/>
<feColorMatrix type="matrix" values="0 0 0 0 0 0 0 0 0 0 0 0 0 0 0 0 0 0 0.54 0"/>
<feBlend mode="normal" in2="shape" result="effect1_innerShadow_709_277"/>
</filter>
</defs>
</svg>
