<svg width="489" height="147" viewBox="0 0 489 147" fill="none" xmlns="http://www.w3.org/2000/svg">
<path d="M159.148 50.8859C158.428 40.0759 165.428 29.9359 176.758 25.4259C180.708 23.8559 184.668 22.1059 189.068 22.0859C190.858 22.0859 192.348 22.5059 193.398 24.1459C196.638 29.2059 199.308 34.5559 200.828 40.3559C202.258 45.8259 200.868 48.1059 195.698 50.4159C191.898 52.1159 188.168 53.9959 184.388 55.7459C182.328 56.6959 182.588 57.7959 184.118 58.9459C186.198 60.5059 188.428 61.2759 191.068 60.2559C192.738 59.6159 194.498 59.1359 196.248 58.7559C198.128 58.3559 200.018 57.9759 201.098 60.4159C202.208 62.9259 202.028 65.3559 199.858 66.7859C194.318 70.4459 188.578 73.7959 182.848 77.1559C181.318 78.0559 179.578 77.5959 177.908 77.1359C167.518 74.3159 158.568 63.9059 159.148 50.8859Z" fill="white"/>
<path d="M312.889 46.7563C312.549 41.4763 315.539 34.5163 322.869 29.5363C327.639 26.2963 332.409 23.0963 338.169 21.8563C342.509 20.9163 344.879 21.7963 347.039 25.4963C350.159 30.8463 353.189 36.2463 354.459 42.4363C355.119 45.6763 354.119 47.9863 351.099 49.3163C346.559 51.3163 342.019 53.2863 337.429 55.1663C334.919 56.1963 335.309 57.4563 337.029 58.7363C339.399 60.5063 341.999 61.1263 344.989 60.2463C347.639 59.4663 350.229 58.1063 353.189 59.1663C356.439 60.3263 357.449 63.2263 354.799 65.2963C349.299 69.5963 343.629 74.1463 336.929 76.0363C329.979 77.9963 324.359 73.6963 319.489 69.1563C313.999 64.0363 313.369 57.1063 312.889 46.7563Z" fill="white"/>
<path d="M211.231 107.715C211.231 110.365 211.201 113.015 211.241 115.665C211.261 117.125 212.031 117.115 212.971 116.365C214.021 115.515 214.991 114.565 216.051 113.735C217.871 112.295 219.741 112.745 221.311 114.045C222.941 115.395 222.461 117.185 221.381 118.595C217.891 123.145 214.271 127.595 210.701 132.085C209.331 133.815 207.811 133.915 205.991 132.675C202.401 130.225 198.521 128.575 194.081 128.395C192.611 128.335 191.031 127.915 190.581 126.245C190.141 124.625 191.081 123.295 192.381 122.565C194.281 121.515 194.631 119.945 194.591 118.035C194.511 114.315 194.441 110.605 194.461 106.885C194.461 105.295 193.851 104.595 192.331 103.985C187.691 102.125 187.371 99.1451 191.301 96.0651C192.721 94.9551 194.121 93.8251 195.601 92.7851C200.891 89.0651 201.511 89.0151 206.941 92.6651C208.351 93.6051 209.401 93.1651 210.691 92.6451C217.531 89.8851 218.271 90.0951 222.961 95.7651C228.761 102.765 228.581 103.625 220.421 107.845C219.821 108.155 219.191 108.415 218.621 108.775C216.101 110.375 213.791 110.935 212.211 107.205C211.881 107.375 211.551 107.535 211.221 107.705L211.231 107.715Z" fill="white"/>
<path d="M177.01 117.926C179.43 116.096 181.05 114.086 183.93 114.476C187.71 114.976 188.8 116.736 186.68 119.916C183.8 124.216 180.63 128.326 177.58 132.516C175.28 135.676 174.84 137.646 170.47 133.406C167.4 130.436 163.4 128.636 159.42 126.976C156.04 125.566 155.65 123.526 158.43 121.246C159.77 120.146 160.06 119.046 159.99 117.476C159.85 114.326 159.88 111.166 159.83 108.006C159.78 105.306 160.51 102.436 156.58 101.356C154.89 100.896 154.67 98.836 156.08 97.436C157.27 96.256 158.68 95.276 160.1 94.376C164.58 91.546 168.36 88.106 170.31 83.016C171.4 80.1557 173.79 80.0357 176.21 80.4257C178.56 80.8057 178.1 82.8657 178.18 84.496C178.23 85.396 178.25 86.306 178.18 87.206C177.96 89.956 177.9 92.256 181.91 92.116C184.18 92.036 184.52 94.226 184.36 96.176C184.18 98.416 185.12 101.646 181.81 101.926C177.8 102.266 177.19 104.246 177.19 107.626C177.19 110.846 176.66 114.066 177.04 117.936L177.01 117.926Z" fill="white"/>
<path d="M297.491 105.615C298.001 103.785 298.551 101.965 295.951 100.965C293.961 100.205 294.151 97.6546 296.221 96.3546C301.821 92.8446 306.331 88.5246 308.261 81.9446C308.771 80.1846 310.391 80.1445 311.921 80.3045C313.971 80.5245 315.221 81.7346 315.611 83.6846C315.831 84.7746 315.731 85.9346 315.711 87.0546C315.661 89.9746 315.051 92.7946 319.831 92.7646C322.831 92.7446 321.691 96.0346 321.821 98.0046C321.971 100.195 321.101 102.045 318.691 101.905C315.231 101.705 314.831 103.575 314.921 106.275C315.021 109.205 314.911 112.135 314.991 115.055C315.011 115.865 314.571 117.065 315.711 117.405C316.561 117.655 316.991 116.655 317.531 116.115C318.321 115.315 319.051 114.425 320.291 114.305C323.081 114.045 325.191 116.685 323.801 119.155C321.091 123.955 318.061 128.575 315.031 133.175C314.141 134.525 312.681 134.765 311.131 133.925C306.971 131.675 302.711 129.705 298.131 128.345C294.221 127.185 293.721 124.915 296.301 121.825C297.181 120.775 297.491 119.695 297.491 118.445C297.501 114.175 297.491 109.895 297.491 105.625V105.615Z" fill="white"/>
<path d="M278.53 117.926C279.85 119.856 281.34 119.646 282.97 119.316C285.06 118.906 287.1 118.146 289.28 118.286C290.71 118.376 292.06 118.776 292.57 120.216C293.09 121.676 292.81 123.156 291.57 124.236C287.81 127.486 283.84 130.466 279.35 132.636C276.2 134.166 270.25 132.046 266.91 128.456C260.1 121.156 258.7 108.176 264.45 100.046C268.26 94.6659 273.99 91.4959 280.44 90.0759C283.63 89.3759 285.91 91.4259 287.23 94.0759C289.18 97.9959 290.94 102.036 292.43 106.156C293.35 108.696 292.71 110.976 289.86 112.286C286.09 114.026 282.41 115.976 278.52 117.926H278.53Z" fill="white"/>
<path d="M258.079 107.796C258.349 109.846 257.259 111.066 255.649 111.896C252.849 113.346 250.029 114.746 247.199 116.136C246.429 116.516 245.259 116.536 245.389 117.756C245.499 118.796 246.519 119.106 247.339 119.426C249.719 120.366 251.969 119.686 254.219 118.786C256.019 118.066 257.849 117.936 259.039 119.796C260.099 121.456 260.179 123.096 258.369 124.546C254.469 127.646 250.309 130.306 245.719 132.246C241.989 133.826 238.659 132.636 235.589 130.406C230.359 126.596 227.859 121.306 226.989 114.976C225.019 100.736 232.939 95.6659 243.369 90.8059C247.579 88.8459 250.139 90.3059 252.959 94.3759C255.789 98.4659 256.799 103.176 258.089 107.786L258.079 107.796Z" fill="white"/>
<path d="M412.892 8.59575C432.091 8.57584 448.471 15.6559 462.791 28.0957C473.011 36.9657 481.462 47.1255 485.222 60.4053C491.612 82.9751 489.931 104.626 475.341 123.726C466.591 135.175 454.121 141.635 440.191 145.285C425.651 149.095 412.811 145.116 400.781 137.126C397.021 134.636 393.341 132.026 389.691 129.376C383.211 124.676 376.151 125.426 371.131 131.686C369.361 133.895 367.851 133.946 365.691 132.516C363.031 130.746 359.542 129.735 360.352 125.035C357.172 127.245 354.941 129.825 351.881 131.325C350.001 132.245 348.271 132.316 346.371 131.516C342.421 129.856 338.561 129.646 334.812 132.226C333.162 133.366 331.171 133.785 329.401 132.575C327.741 131.445 328.251 129.666 328.421 127.936C328.761 124.656 330.331 122.195 332.901 120.325C334.561 119.115 334.521 118.375 332.791 117.115C325.901 112.095 326.082 106.406 331.021 99.586C333.001 96.846 335.661 94.6856 338.691 92.4356L338.701 92.4258C335.471 90.2759 334.991 87.9956 336.841 84.8057C340.631 78.2658 351.521 76.9061 357.751 82.2061C363.921 87.4559 364.851 93.8359 360.211 100.466C359.211 101.896 358.892 102.555 360.722 103.405C362.721 104.335 364.211 105.996 364.951 108.065C365.781 110.385 366.592 110.066 367.812 108.426C369.981 105.516 372.591 103.036 375.411 100.756C383.021 94.6059 391.652 92.8255 401.142 94.5655C401.441 94.6153 401.772 94.5052 402.911 94.3653C398.671 91.8353 399.201 88.7652 400.671 85.3653C401.851 82.6656 403.251 81.036 406.551 81.8457C408.141 82.2357 410.101 82.2258 411.001 80.3262C411.851 78.5162 411.251 76.8455 410.021 75.3155C407.072 71.6456 404.031 68.1359 403.091 63.1661C402.081 57.7961 404.812 53.5853 406.682 48.1553C401.332 49.6553 396.521 51.2757 393.361 55.3057C389.501 60.2357 386.332 65.6854 389.472 72.4053C390.262 74.1051 391.421 75.4156 392.841 76.5655C395.691 78.8555 396.941 84.0359 395.441 87.2959C395.091 88.0557 394.551 88.665 393.722 88.7852C386.732 89.8552 379.771 91.5055 372.901 87.8555C363.261 82.7256 356.521 69.9454 357.511 59.0254C358.861 44.1356 365.061 31.6459 376.161 21.876C386.541 12.746 399.032 8.61575 412.892 8.59575ZM440.416 61.4317C440.548 63.196 441.351 64.0962 441.819 65.1368C445.379 72.9967 444.089 83.0061 438.629 88.2061C432.019 94.4961 424.129 97.567 414.949 97.167C413.839 97.117 412.649 96.7369 411.039 97.7969C418.939 100.917 425.53 105.186 431.68 110.156C435.47 113.216 439.67 115.636 443.979 117.866C450.339 121.166 456.249 119.286 459.619 112.897C462.999 106.477 462.92 99.5867 461.64 92.7569C459.89 83.3569 454.259 75.9264 448.279 68.8164C446.009 66.1265 443.979 63.1262 440.399 61.0762L440.416 61.4317Z" fill="white"/>
<path d="M484.33 79.716C485.67 110.136 466.48 132.196 437.4 135.946C431.43 136.716 425.48 136.756 419.5 136.036C411.87 135.126 405.31 131.806 399.3 127.186C394.47 123.476 389.26 120.836 382.91 120.806C377.23 120.786 372.48 122.526 368.96 127.046C367.86 128.456 367.05 128.866 365.38 127.826C363.86 126.876 363.83 126.016 364.42 124.536C368.18 115.186 373 106.606 381.67 100.856C390.21 95.186 399.02 95.336 407.98 99.846C414.11 102.926 419.05 107.596 424.13 112.066C427.94 115.426 431.61 118.946 435.9 121.716C449.51 130.506 463.11 124.996 466.48 109.096C469.88 93.066 466.03 78.626 455.78 65.966C447.38 55.576 436.57 48.686 423.75 44.966C420.79 44.106 419.89 44.816 419.93 47.856C419.97 50.856 421.75 52.886 423.9 54.606C427.5 57.496 431.26 60.176 434.7 63.296C445.37 72.986 440.61 85.056 431.41 90.016C422.22 94.966 412.74 95.616 403.16 91.026C402.25 90.586 400.83 90.336 401.68 88.656C402.34 87.336 402.72 85.946 404.79 86.576C407.84 87.516 410.95 87.766 413.1 84.816C415.4 81.666 415.09 78.226 413.48 74.866C412.65 73.136 411.75 71.436 410.75 69.796C405.63 61.436 406.38 53.536 412.49 45.996C413.07 45.276 414.42 44.596 413.76 43.536C413.21 42.646 411.89 43.116 410.92 43.176C402.87 43.716 395.43 45.916 389 51.056C381.79 56.826 379.47 67.106 383.71 75.186C385.13 77.886 387.04 80.026 390.3 80.436C391.45 80.586 392.88 80.186 392.8 82.236C392.74 83.776 392.73 84.896 390.85 85.586C380.44 89.446 368.24 84.566 363.84 74.376C358.52 62.066 360.77 50.186 366.91 38.936C378.25 18.146 401.35 8.29601 425.69 13.976C448.4 19.276 465.83 31.926 476.96 52.656C481.85 61.746 484.1 71.596 484.29 79.736L484.33 79.716Z" fill="black"/>
<path d="M234.688 5.36589C241.198 5.16598 248.598 8.50672 251.728 15.3766C254.818 22.1465 253.818 29.3566 248.338 35.1764C246.808 36.7962 247.308 36.9164 248.948 37.8063C259.098 43.2863 260.218 49.9764 254.498 58.8864C249.848 66.1363 242.988 71.5066 236.188 76.7565C233.948 78.4865 232.098 77.0965 230.418 75.7565C226.848 72.9365 222.968 72.286 218.658 73.6559C217.008 74.1759 215.588 74.8762 214.378 76.1862C212.378 78.346 210.018 78.1967 207.668 76.7067C205.158 75.1167 205.568 72.9458 206.688 70.7858C208.668 66.986 210.588 63.086 214.258 60.5661C215.998 59.3662 215.268 58.8562 213.978 58.0163C210.898 55.9963 208.568 53.3262 207.348 49.7663C205.288 43.7563 207.548 38.916 211.568 34.696C214.518 31.5961 217.788 28.816 220.878 25.8561C221.748 25.0161 222.978 24.4663 223.238 23.0964C223.168 22.7864 223.168 22.3859 222.658 22.5358H222.648C221.058 23.0658 219.418 23.9863 218.028 22.2067C216.888 20.7567 216.808 19.1862 217.448 17.4362C219.898 10.6362 226.838 5.60589 234.688 5.36589ZM235.951 52.8854C233.871 51.7955 232.301 54.5044 230.521 55.5446C230.271 55.6946 230.161 56.0751 229.891 56.485V56.4948C232.211 57.4448 234.452 58.3652 236.972 59.3952C236.832 56.9052 238.251 54.0855 235.951 52.8854ZM228.739 38.3249C227.959 37.8348 227.269 36.4755 226.229 37.2253C225.249 37.9353 225.639 39.3357 225.829 40.3757C226.139 42.0755 226.019 44.1849 228.089 44.9049C229.889 45.5249 231.289 44.3556 232.609 43.2956C233.729 42.3857 234.819 41.4354 235.919 40.5055C233.259 40.0456 230.899 39.6848 228.739 38.3249ZM234.081 17.6051C233.331 16.3954 231.981 16.2754 230.751 16.5954C227.821 17.3454 225.581 19.0255 224.301 22.1755H224.311C226.611 20.9056 228.751 21.6055 230.921 22.1755C232.141 22.4955 233.501 22.5952 234.161 21.1852C234.701 20.0452 234.761 18.7151 234.081 17.6051Z" fill="white"/>
<path d="M351.369 123.376C351.749 120.046 352.799 117.306 351.909 114.326C350.909 110.986 349.049 110.226 346.359 112.606C343.939 114.756 341.639 116.656 338.079 116.316C334.879 116.016 332.549 114.616 331.119 111.786C329.739 109.056 330.009 106.416 331.729 103.876C334.559 99.6956 339.069 97.2456 342.359 93.5456C343.029 92.7956 344.229 92.8856 345.159 93.5956C347.459 95.3656 349.449 94.8856 350.749 92.4656C352.129 89.8756 350.749 86.2156 348.119 85.4256C344.619 84.3656 342.069 86.0656 339.959 88.6756C339.529 89.2156 339.429 90.0256 338.259 89.3256C337.149 88.6656 337.949 88.2456 338.149 87.8356C340.189 83.5456 346.759 81.1159 352.249 82.5759C356.999 83.8456 360.199 88.0456 359.749 92.8056C359.319 97.2756 357.019 100.716 352.739 102.226C348.769 103.616 344.969 103.096 342.139 99.4656C341.959 99.2456 341.639 99.1356 341.029 98.7456C341.059 101.196 339.949 103.156 340.579 105.496C341.809 110.016 345.559 111.326 349.179 108.256C351.129 106.606 352.779 104.666 355.779 104.676C359.029 104.686 360.879 106.286 361.749 109.086C362.999 113.116 362.449 116.896 359.239 119.926C356.209 122.786 353.079 125.536 350.049 128.396C348.869 129.506 347.639 129.596 346.379 128.806C341.819 125.966 337.369 125.906 332.919 129.046C332.369 129.436 331.709 130.216 330.869 129.326C330.049 128.446 330.869 127.896 331.249 127.296C332.889 124.706 334.719 122.166 337.469 120.776C341.679 118.646 345.169 117.156 351.379 123.366L351.369 123.376Z" fill="black"/>
<path d="M270.909 16.3159C276.009 7.66586 286.039 2.03542 297.579 7.08538C303.029 9.46535 307.179 15.7554 306.939 21.9653C306.709 27.8452 305.309 33.3258 299.649 37.2358C305.999 39.1858 309.479 43.1256 309.929 49.2553C310.299 54.3353 308.309 58.8152 305.179 62.6352C301.039 67.6952 296.479 72.3859 291.199 76.3159C287.389 79.1558 286.409 79.1953 282.609 76.5453C276.019 71.9453 275.049 71.8455 268.559 76.4955C266.159 78.2153 264.279 78.4552 261.959 76.4653C259.589 74.4353 260.109 72.3551 261.349 70.1352C263.009 67.1752 264.959 64.4253 267.359 62.0053C268.249 61.1154 269.149 60.405 267.499 59.0951C256.779 50.6552 258.189 40.5054 266.639 31.9555C269.159 29.4055 271.979 27.1457 274.999 24.4457H274.989C269.689 23.5557 268.319 20.7157 270.909 16.3159ZM288.55 52.6254C287.729 52.6062 283.002 56.3135 283.29 56.8647C284.41 58.9847 286.79 58.9456 288.69 59.2856C291.01 59.7052 290.28 57.5047 290.51 56.4047C290.499 53.6128 289.978 52.6654 288.55 52.6254ZM281.919 38.5561C281.289 38.3361 280.529 38.1762 280.109 38.8862C279.74 39.516 279.969 40.1958 280.349 40.7856C281.319 42.2856 282.549 43.4463 284.489 42.7963C286.249 42.2063 288.049 41.6254 290.169 39.9155C286.879 39.7355 284.359 39.3961 281.919 38.5561ZM286.599 16.7143C283.059 16.0046 281.569 18.9149 279.539 21.0248C281.789 21.1248 283.779 21.9345 285.849 22.2446C287.739 22.5246 289.299 21.9142 289.659 19.8842C290.069 17.6245 288.289 17.0543 286.599 16.7143Z" fill="white"/>
<path d="M152.628 0.0153571C155.218 -0.174612 156.268 1.41591 156.368 3.78586C156.448 5.82571 156.718 7.95561 153.908 8.58567C147.788 9.95566 145.568 12.1959 145.038 18.6257C144.068 30.5356 143.658 42.4763 144.068 54.4363C144.098 55.186 143.858 56.1057 144.727 56.5456C145.597 56.9955 146.268 56.4061 146.788 55.8161C148.808 53.5462 151.168 53.196 153.258 55.3259C155.228 57.3259 154.938 59.8861 153.508 62.196C150.588 66.8859 147.648 71.5561 144.628 76.196C143.618 77.7458 143.248 78.6164 145.388 79.7663C153.137 83.9064 155.548 91.1457 152.008 99.2156C151.288 100.855 150.998 101.786 152.838 103.016C158.318 106.686 159.358 114.376 155.088 119.686C151.538 124.096 147.238 127.776 142.818 131.296C140.868 132.845 138.548 132.646 136.348 131.866C131.658 130.186 127.148 129.596 122.958 133.146C122.088 133.876 120.908 134.166 119.818 133.356C118.638 132.486 118.668 131.366 118.918 130.026C119.538 126.836 120.928 123.966 122.968 121.556C125.148 118.986 123.038 118.096 121.578 116.836C119.598 115.126 118.968 117.216 118.278 118.206C113.508 125.056 107.708 130.746 100.508 135.066C83.878 145.026 66.7381 145.696 48.8984 138.606C41.7385 135.756 35.4183 131.276 28.2284 128.546C23.6884 126.816 19.1777 127.046 14.7177 128.756C12.8278 129.476 11.0278 130.446 9.1679 131.256C6.04802 132.605 3.7178 130.686 1.37786 129.196C-0.791882 127.816 0.208432 125.706 0.728447 123.956C3.60841 114.336 8.90818 106.216 16.3779 99.5163C17.1377 98.8365 17.9678 98.256 18.7177 97.5661C19.5877 96.7762 21.4082 96.1556 20.7284 94.8757C20.1085 93.7059 18.4982 94.7162 17.3183 94.9363C13.7784 95.5963 10.318 96.6563 6.65813 96.7263C4.38829 96.7663 3.40808 95.9457 3.28802 93.6159C3.07804 89.4161 3.88813 85.926 6.9179 82.5359C10.5678 78.4559 10.5283 73.0255 9.81829 67.7556C9.08826 62.3858 6.73785 57.6355 3.95794 53.0857C-3.12189 41.4758 0.00860851 29.736 7.72845 20.946C19.0184 8.08617 33.4485 6.80604 48.9384 10.946C52.7183 11.956 56.4484 13.5356 59.8583 15.4656C62.9381 17.2054 65.4077 17.4655 67.8075 14.7761C73.8575 8.01611 81.1383 7.7963 89.6181 9.22629C102.468 11.3963 111.318 17.8658 117.698 29.0857C123.158 38.6657 118.558 54.436 111.378 60.406C110.598 61.0559 109.838 61.726 109.088 62.406C108.078 63.3158 108.218 64.0158 109.348 64.7956C119.658 71.8356 123.537 82.0959 123.977 94.0759C124.007 94.8269 124.095 95.5783 124.213 96.9372C126.472 95.3379 128.39 94.3362 126.338 91.6765C124.998 89.9466 125.488 88.096 126.598 86.3161C129.628 81.4461 134.168 79.0562 140.328 78.1462C135.768 75.5662 131.698 73.3862 127.168 72.1462C124.988 71.5562 122.818 70.9562 120.628 70.3962C118.398 69.8262 117.168 68.4755 116.968 66.1257C116.778 63.9559 117.548 62.2755 119.508 61.4255C122.008 60.3455 122.578 58.3856 122.568 55.9558C122.508 42.1959 123.158 28.4254 121.928 14.6755C121.718 12.3557 120.867 10.3252 119.937 8.26536C118.518 5.14568 119.459 2.86567 122.948 0.745826C125.728 -0.933814 127.747 0.666059 128.857 2.78586C130.667 6.25553 132.398 5.90568 135.348 4.0759C140.568 0.845924 146.658 0.445354 152.628 0.0153571ZM38.7587 31.1257C38.0088 28.9657 37.7283 25.1858 34.7284 25.9157C31.8987 26.6059 32.589 30.1861 32.829 32.7361C33.559 40.606 37.4883 47.4564 40.0683 54.8064C40.2783 46.8364 41.4487 38.8357 38.7587 31.1257Z" fill="white"/>
<path d="M342.449 90.2653C343.469 88.5653 344.649 87.2453 346.719 88.1653C347.539 88.5253 347.819 89.5953 347.369 90.1753C345.909 92.0653 344.149 90.0153 342.449 90.2653Z" fill="black"/>
<path d="M100.29 62.726C107.24 66.776 112.72 71.406 116.28 77.926C125.24 94.296 120.59 113.916 104.68 125.246C89.8101 135.836 73.1199 138.586 55.3499 135.196C49.4699 134.076 44.4899 130.866 39.6899 127.446C33.8999 123.316 27.5899 121.126 20.3699 121.546C15.4399 121.836 11.0099 122.956 7.72988 126.926C6.98988 127.826 6.26988 128.376 5.21988 127.446C4.36988 126.696 2.89988 126.376 3.60988 124.606C7.39988 115.026 12.1499 106.186 21.1699 100.366C24.1699 98.426 27.3799 96.936 30.8899 96.806C34.2499 96.676 36.3099 94.906 38.1499 92.536C42.7099 86.696 44.1499 79.736 44.9399 72.646C46.6099 57.746 46.3599 42.916 42.6499 28.286C42.0899 26.086 41.2399 24.006 39.9699 22.126C38.4999 19.936 36.5699 18.356 33.7699 18.856C31.1399 19.326 29.7899 21.326 29.1699 23.756C27.7299 29.336 28.6599 34.726 30.6199 40.006C32.6599 45.496 35.8599 50.496 37.2999 56.246C41.0799 71.306 35.2599 83.116 20.9799 89.196C17.5299 90.666 13.9499 91.646 10.2799 92.346C9.24988 92.546 7.87988 93.156 7.43988 91.546C7.08988 90.266 6.15988 89.076 7.63988 87.556C15.9799 79.016 17.0799 67.906 10.8899 56.696C9.14988 53.536 7.03988 50.566 5.84988 47.126C1.13988 33.616 7.27988 20.556 20.7299 15.636C30.0399 12.226 39.5399 12.136 49.0299 14.786C54.4499 16.296 59.2299 19.096 62.9999 23.336C64.2199 24.706 65.0299 24.926 66.5199 23.676C70.3299 20.496 74.2799 17.486 78.1699 14.396C79.0499 13.696 79.7999 12.876 81.0899 12.926C90.4801 13.306 99.5501 14.806 107.26 20.726C118.34 29.246 120.17 45.996 111.14 55.506C108.24 58.566 104.54 60.486 100.27 62.716L100.29 62.726Z" fill="black"/>
<path d="M130.98 13.8546C135.47 5.26462 142.6 3.07452 151.11 3.82452C151.92 3.89452 153.07 3.50452 153.16 4.91452C153.25 6.26452 152.43 6.49452 151.23 6.58452C146.02 6.98452 141.77 8.93451 140.43 14.4845C139.91 16.6345 140.03 18.9645 140.02 21.2145C139.99 33.0645 140.17 44.9145 139.9 56.7546C139.82 60.1146 142.05 60.4646 144.01 61.5146C146.09 62.6346 146.24 60.2746 147.35 59.6546C148.77 58.8546 149.09 55.2246 151.51 57.3646C153.17 58.8245 150.57 60.0545 149.86 61.2946C147.69 65.1046 145.11 68.6745 142.98 72.4945C141.87 74.4845 140.79 74.7545 139.01 73.6045C134.05 70.3945 128.66 68.2846 122.83 67.2046C122 67.0546 120.44 67.4145 120.31 65.6146C120.17 63.7446 121.67 64.1347 122.57 63.8347C124.93 63.0447 125.96 61.4845 125.96 59.0245C125.92 45.1445 125.99 31.2646 125.86 17.3846C125.83 14.0046 124.8 10.7345 123.28 7.67452C122.79 6.69452 121.87 5.83452 123.26 4.79452C124.87 3.59452 125.49 5.05451 126.25 5.86451C128.25 8.02451 129.45 10.7045 130.96 13.8645L130.98 13.8546Z" fill="black"/>
<path d="M141.909 123.475C142.689 120.125 143.309 117.285 142.659 114.365C141.909 111.005 140.119 110.305 137.379 112.435C134.809 114.435 132.539 116.775 128.799 116.355C125.629 115.995 123.219 114.705 121.809 111.845C120.409 109.005 120.709 106.265 122.559 103.655C125.409 99.6451 129.749 97.1951 132.979 93.5851C133.679 92.8051 134.899 92.8551 135.779 93.5651C137.409 94.8951 139.119 95.1051 140.629 93.6351C142.269 92.0351 142.059 89.8751 141.439 87.9351C140.839 86.0551 139.209 85.1751 137.249 85.1151C134.569 85.0451 132.589 86.4351 130.839 88.3051C130.379 88.7951 130.389 90.3151 128.999 89.2551C127.679 88.2451 128.969 87.5551 129.339 87.0051C132.219 82.7552 138.269 81.0253 143.489 82.8253C148.129 84.4251 150.719 88.0251 150.339 92.7751C149.989 97.2751 147.719 100.755 143.449 102.235C139.519 103.605 135.669 103.115 132.819 99.4951C132.649 99.2751 132.329 99.1651 131.749 98.7851C131.479 100.655 131.009 102.285 131.069 103.895C131.149 106.135 131.459 108.495 134.029 109.465C136.389 110.355 138.399 109.635 140.189 107.955C141.979 106.275 143.679 104.595 146.539 104.655C149.449 104.715 151.279 106.015 152.219 108.535C153.689 112.485 153.439 116.325 150.279 119.435C147.069 122.585 143.669 125.545 140.369 128.595C139.269 129.615 138.109 129.445 136.979 128.755C132.419 125.985 127.949 125.875 123.519 129.065C122.929 129.485 122.289 130.175 121.489 129.275C121.009 128.735 121.169 128.265 121.509 127.775C123.699 124.635 125.949 121.575 129.639 119.965C134.449 117.875 138.329 119.195 141.889 123.465L141.909 123.475Z" fill="black"/>
<path d="M132.359 91.0255C134.139 88.7558 135.449 87.2854 137.829 88.0353C138.739 88.3153 139.059 89.3157 138.629 89.9757C137.179 92.1954 135.049 90.8756 132.369 91.0255H132.359Z" fill="black"/>
<path d="M22.131 94.2553C22.071 94.3053 21.991 94.4153 21.921 94.4053C21.851 94.4053 21.781 94.2853 21.711 94.2153C21.791 94.1553 21.861 94.0453 21.931 94.0553C22.001 94.0553 22.061 94.1753 22.121 94.2453L22.131 94.2553Z" fill="black"/>
<path d="M278.17 31.8454C276.92 34.3854 277 37.1454 277.05 39.8954C277.09 42.5554 278.02 44.8254 280.45 46.0354C283.04 47.3354 285.7 47.0254 288.04 45.2854C289.57 44.1454 290.91 42.7454 292.42 41.5754C297.77 37.4354 304.91 40.0854 306.25 46.7054C307.41 52.4054 306.22 57.4154 301.75 61.4254C297.64 65.1154 293.52 68.7854 289.45 72.5154C288.03 73.8154 286.79 73.6854 285.24 72.6754C279.06 68.6254 272.85 68.5254 266.74 72.8854C265.83 73.5354 265.01 74.4354 263.88 73.2254C262.82 72.0854 263.92 71.2954 264.42 70.5954C265.78 68.6654 267.17 66.7254 268.8 65.0354C276 57.5254 284.03 57.4554 291.56 64.9954C293.08 60.5354 293.38 56.1654 292.31 51.8154C291.48 48.4054 289.1 47.6754 286.17 49.7054C284.88 50.5954 283.78 51.7554 282.58 52.7754C277.49 57.0654 270.89 56.9055 266.38 52.3755C262.06 48.0455 261.88 42.0254 266.55 37.0054C270.68 32.5654 275.33 28.6054 279.83 24.5154C280.8 23.6354 282.23 23.6355 283.22 24.5455C285.25 26.4055 287.38 26.8454 289.57 25.0854C292.02 23.1154 291.91 20.3554 291.26 17.6554C290.6 14.9254 288.58 13.5554 285.89 13.3054C281.9 12.9254 278.97 14.9554 276.61 17.8654C275.74 18.9354 275 19.9554 273.74 18.7554C272.68 17.7554 273.87 16.9054 274.4 16.1254C279.74 8.16545 291.98 6.69545 299.08 13.1454C304.76 18.2954 304.64 27.5954 298.82 33.2754C292.85 39.0954 284.86 38.9255 279.49 32.8855C279.14 32.4855 278.96 31.8554 278.17 31.8554V31.8454Z" fill="black"/>
<path d="M237.978 65.0248C239.458 61.1748 239.288 57.4748 239.148 53.8148C239.068 51.7348 238.528 49.7248 236.358 48.8348C234.368 48.0248 232.928 49.3348 231.528 50.4648C230.128 51.5948 228.868 52.9248 227.388 53.9248C222.628 57.0948 216.528 56.3248 212.598 52.1748C208.678 48.0448 208.478 42.5748 212.218 37.7848C216.198 32.6848 221.838 29.2948 226.218 24.5848C227.148 23.5848 228.678 23.6448 229.598 24.4948C231.638 26.3948 233.708 26.8348 235.928 25.1048C238.428 23.1448 238.328 20.3448 237.688 17.6648C237.038 14.9748 235.008 13.5448 232.298 13.3148C228.358 12.9848 225.338 14.7848 222.998 17.7948C222.208 18.8148 221.588 20.0548 220.188 18.7948C218.968 17.6948 220.318 16.8648 220.818 16.1148C226.698 7.36478 240.918 6.72478 247.138 14.8948C251.428 20.5248 250.058 29.3848 244.158 34.2248C238.198 39.1148 230.908 38.5548 225.848 32.8248C225.498 32.4248 225.158 32.0248 224.618 31.3948C223.508 34.4648 223.268 37.3148 223.488 40.1948C223.948 46.2248 229.458 48.8448 234.408 45.3548C235.868 44.3248 237.118 42.9848 238.498 41.8148C241.238 39.4748 244.378 39.0048 247.638 40.3348C250.848 41.6448 252.218 44.3548 252.768 47.6848C253.708 53.4048 252.038 58.0748 247.698 61.8948C243.718 65.3948 239.788 68.9448 235.878 72.5248C234.458 73.8248 233.208 73.7148 231.668 72.6948C225.488 68.6248 219.278 68.5548 213.148 72.8548C212.208 73.5148 211.338 74.3848 210.238 73.1748C209.218 72.0448 210.378 71.2547 210.858 70.5347C212.108 68.6747 213.438 66.8248 214.958 65.1848C222.038 57.5448 230.198 57.4248 237.998 65.0248H237.978Z" fill="black"/>
<path d="M222.648 22.5364C222.928 22.4664 223.208 22.3864 223.488 22.3164C223.398 22.5764 223.308 22.8364 223.228 23.0964C223.038 22.9164 222.838 22.7264 222.648 22.5464V22.5364Z" fill="black"/>
<path d="M163.711 49.5758C163.711 37.1658 166.551 32.8958 178.121 28.2358C181.131 27.0258 184.241 26.0558 187.331 25.0358C188.921 24.5158 189.991 24.8458 190.741 26.6458C192.961 32.0258 195.361 37.3358 197.761 42.6358C198.401 44.0558 198.191 44.6758 196.621 45.3058C190.911 47.5958 185.311 50.2058 179.591 52.4558C177.691 53.2058 177.251 54.1058 177.741 55.9658C178.361 58.2758 179.211 60.4258 180.841 62.2158C183.961 65.6358 185.811 66.0458 190.141 64.2758C192.421 63.3458 194.691 62.3858 196.991 61.5158C197.721 61.2358 198.611 60.4658 199.161 61.9258C199.601 63.0758 199.451 63.6558 198.281 64.2958C192.781 67.3358 187.331 70.4658 181.921 73.6558C180.601 74.4258 179.471 74.3258 178.121 73.8358C168.971 70.5158 163.771 63.2858 163.721 53.6458C163.721 52.2958 163.721 50.9458 163.721 49.5858L163.711 49.5758Z" fill="black"/>
<path d="M317.079 49.7651C316.439 43.1951 317.149 37.1351 323.069 32.8551C328.529 28.9051 334.779 26.7951 341.129 24.9051C342.479 24.5051 343.429 25.0351 344.019 26.4251C346.319 31.8951 348.589 37.3851 351.119 42.7451C351.969 44.5451 351.179 44.7751 349.889 45.3151C344.309 47.6451 338.789 50.1351 333.169 52.3751C331.209 53.1551 330.629 54.0151 331.189 56.1251C331.869 58.7151 332.979 61.0151 334.869 62.8351C337.209 65.0851 339.669 66.6451 343.159 64.5151C345.419 63.1251 348.099 62.4351 350.579 61.4051C351.459 61.0351 352.129 60.7051 352.579 62.0451C352.939 63.1051 352.879 63.6751 351.839 64.1951C346.009 67.1051 340.419 70.4351 334.889 73.8651C333.839 74.5151 332.799 74.295 331.689 73.915C322.689 70.865 317.129 63.2351 317.099 53.8251C317.099 52.4751 317.099 51.1151 317.099 49.7651H317.079Z" fill="black"/>
<path d="M208.07 110.046C208.07 111.846 208.25 113.676 208.03 115.456C207.74 117.846 208.71 119.096 210.82 120.086C212.9 121.056 213.56 119.376 214.79 118.586C216.02 117.786 217.08 115.186 218.31 116.316C220.1 117.966 217.28 118.976 216.48 120.196C214.7 122.916 212.52 125.376 210.72 128.076C209.59 129.776 208.46 130.506 206.66 129.226C203.33 126.866 199.53 126.096 195.57 125.816C194.9 125.766 193.79 126.266 193.71 125.036C193.65 124.196 194.59 124.026 195.18 123.936C197.26 123.606 197.97 122.336 197.95 120.386C197.9 114.976 197.93 109.556 197.85 104.146C197.81 101.716 197.22 99.8165 194.1 101.376C193.39 101.726 192.42 102.566 191.89 101.186C191.46 100.066 192.7 100.016 193.23 99.5965C194.64 98.4865 196.21 97.5865 197.6 96.4665C200.99 93.7365 202.58 93.5365 205.24 96.7765C206.91 98.8165 208.08 98.3265 209.94 97.4565C219.4 92.9965 216.68 92.7865 223.24 100.626C224.48 102.106 223.96 102.636 222.66 103.286C222.26 103.486 221.87 103.716 221.49 103.946C216.3 106.986 216.33 106.956 212.23 102.666C211.49 101.886 211.15 100.296 209.38 100.946C207.56 101.616 208.11 103.066 208.08 104.316C208.03 106.236 208.07 108.146 208.07 110.066V110.046Z" fill="black"/>
<path d="M174.838 84.4561C174.268 86.9661 174.138 89.6561 174.048 92.3661C173.988 94.1561 174.518 94.8261 176.288 94.5961C177.178 94.4861 178.088 94.5761 178.998 94.5761C182.018 94.5761 183.158 96.2861 182.208 99.1761C181.698 100.726 180.498 99.9661 179.658 99.9861C174.068 100.166 174.058 100.126 174.058 105.636C174.058 109.476 174.218 113.316 173.998 117.146C173.878 119.256 175.188 119.626 176.528 120.466C178.238 121.536 178.968 120.386 179.898 119.446C180.378 118.966 180.858 118.496 181.318 117.996C181.928 117.336 182.458 116.526 183.498 117.456C184.748 118.586 183.218 118.916 182.868 119.426C180.798 122.496 178.508 125.426 176.498 128.536C175.538 130.026 174.558 130.256 173.188 129.426C169.428 127.136 165.428 125.536 161.068 124.846C160.458 124.746 159.698 124.546 159.658 123.646C159.618 122.576 160.268 122.436 161.168 122.316C163.288 122.046 163.838 120.376 163.858 118.626C163.928 112.986 163.818 107.346 163.918 101.696C163.948 99.5961 162.598 100.096 161.438 100.006C160.738 99.9561 159.748 100.366 159.658 99.0861C159.588 98.2061 160.218 97.9761 160.858 97.7161C167.168 95.1761 170.928 90.4761 172.528 83.9461C172.708 83.1961 172.758 82.3161 173.918 82.4661C175.188 82.6261 174.588 83.6361 174.828 84.4461L174.838 84.4561Z" fill="black"/>
<path d="M312.481 85.9251C312.221 88.0451 311.981 90.1751 311.691 92.2851C311.461 93.9551 311.921 94.8551 313.821 94.5951C314.711 94.4751 315.621 94.5751 316.521 94.5751C319.661 94.5751 320.651 96.0351 319.811 99.1051C319.421 100.525 318.431 99.9751 317.671 100.015C311.681 100.305 311.681 100.285 311.681 106.275C311.681 109.775 311.861 113.285 311.621 116.755C311.451 119.175 312.961 119.655 314.581 120.565C316.501 121.655 316.871 119.905 317.841 119.215C318.201 118.955 318.461 118.555 318.821 118.285C319.531 117.755 319.961 116.285 321.221 117.425C322.561 118.635 320.861 119.175 320.461 119.785C318.551 122.695 316.321 125.395 314.471 128.335C313.351 130.115 312.311 130.225 310.651 129.225C307.081 127.085 303.281 125.525 299.121 124.905C298.441 124.805 297.471 124.755 297.441 123.615C297.411 122.505 298.091 122.425 298.971 122.325C300.721 122.115 301.471 120.925 301.481 119.275C301.521 113.415 301.461 107.545 301.571 101.685C301.601 99.9151 300.641 100.035 299.451 100.005C298.781 99.9851 297.811 100.525 297.481 99.3651C297.111 98.0651 298.201 97.8951 298.971 97.5851C305.041 95.1151 308.641 90.5451 310.231 84.3051C310.451 83.4551 310.261 82.365 311.621 82.495C313.181 82.645 312.361 83.7851 312.391 84.5551C312.411 85.0051 312.351 85.4551 312.331 85.9051C312.381 85.9051 312.431 85.9151 312.481 85.9251Z" fill="black"/>
<path d="M264.219 111.735C264.219 102.215 266.629 99.0554 276.749 95.3254C283.199 92.9454 283.279 92.9154 285.869 99.2354C287.069 102.165 290.189 105.445 288.909 107.955C287.799 110.135 283.599 110.755 280.759 112.035C279.749 112.495 278.719 112.945 277.659 113.295C275.219 114.095 273.469 114.965 274.979 118.185C276.789 122.025 279.609 124.215 282.409 123.175C284.499 122.395 286.619 121.675 288.599 120.685C289.679 120.145 290.019 120.605 290.429 121.335C290.959 122.295 290.049 122.505 289.539 122.795C285.659 125.035 281.759 127.245 277.859 129.435C276.599 130.145 275.349 129.935 274.009 129.415C267.899 127.035 264.219 121.715 264.219 115.135C264.219 114.005 264.219 112.875 264.219 111.745V111.735Z" fill="black"/>
<path d="M230.348 112.556C230.348 102.526 232.608 99.4759 242.538 95.5859C243.058 95.3859 243.608 95.2559 244.128 95.0759C247.788 93.8289 250.375 94.9529 251.888 98.4459C252.998 101.006 254.058 103.586 255.258 106.106C255.958 107.566 255.958 108.326 254.168 108.996C250.208 110.476 246.398 112.366 242.448 113.866C240.648 114.556 240.308 115.306 240.958 117.106C241.538 118.726 242.148 120.246 243.358 121.466C245.228 123.356 247.218 124.396 249.908 122.826C251.438 121.936 253.218 121.476 254.828 120.706C255.548 120.356 256.118 120.226 256.558 120.936C256.988 121.616 256.778 122.206 256.058 122.616C251.878 124.986 247.738 127.446 243.488 129.686C242.458 130.226 241.148 129.796 239.938 129.246C232.458 125.846 229.738 119.866 230.338 112.546L230.348 112.556Z" fill="black"/>
<path d="M179.969 33.3359C181.609 37.4359 182.999 41.0659 184.529 44.6459C185.039 45.8359 184.969 46.3859 183.649 46.8259C181.659 47.4959 179.739 48.3659 177.369 49.3259C177.399 43.7959 176.899 38.5859 179.969 33.3359Z" fill="white"/>
<path d="M330.779 49.296C330.579 43.836 330.289 38.726 333.299 33.416C335.009 37.576 336.539 41.316 338.069 45.056C338.469 46.026 338.009 46.416 337.129 46.746C335.059 47.516 333.029 48.386 330.769 49.296H330.779Z" fill="white"/>
<path d="M274.32 111.476C274.33 107.456 273.83 103.636 276.14 99.9961C276.77 101.586 277.33 103.026 277.9 104.456C279.28 107.883 278.083 110.223 274.31 111.476H274.32Z" fill="white"/>
<path d="M242.397 100.086C243.207 101.946 243.817 103.236 244.347 104.556C245.767 108.123 244.517 110.389 240.597 111.356C240.407 107.646 240.187 103.976 242.397 100.096V100.086Z" fill="white"/>
<path d="M68.8975 76.636C69.6975 74.716 70.7981 74.2653 72.7481 74.4153C79.7579 74.9754 84.6081 78.7956 87.4581 84.8352C93.0581 96.6852 93.6576 108.986 88.7676 121.196C84.6276 131.535 74.9574 133.065 67.3575 124.885C63.8176 121.075 61.1377 116.605 58.1378 112.385C54.2178 106.865 50.1874 101.466 43.3575 98.5256H43.3477C49.5777 94.7356 55.6979 91.8152 60.7979 87.2952C64.2077 84.2653 67.1275 80.8457 68.8975 76.636ZM76.7276 81.5168C75.8376 80.8168 74.5276 79.2067 73.5176 81.3967C70.3476 88.2264 64.4774 92.4766 58.8575 96.9866C56.2846 99.0595 55.9509 101.52 57.8575 104.366C58.8574 105.866 59.828 107.386 60.878 108.846C63.898 113.056 66.8678 117.316 71.2178 120.326C76.3077 123.846 81.1479 122.706 84.2881 117.357C86.7381 113.197 86.7585 108.546 87.4385 103.416H87.4278C87.0178 101.066 86.7683 98.1161 85.9483 95.3362C84.3183 89.8262 81.2976 85.1067 76.7276 81.5168Z" fill="white"/>
<path d="M75.2086 25.7853C78.3286 23.4554 79.9991 23.445 82.9088 26.0549C87.2288 29.9249 88.8593 35.0652 88.9293 40.6252C89.0493 50.6352 85.9085 59.2354 77.2487 65.1154C75.8589 66.0553 74.3791 66.8846 72.2994 66.8947H72.2887C73.1587 59.995 73.5092 53.1653 72.5993 46.3156C71.9993 41.8256 71.1892 37.4151 69.2692 33.2951C68.4692 31.5752 68.599 30.4552 70.3287 29.4152C72.0586 28.3753 73.5888 27.0053 75.2086 25.7853ZM78.1979 59.8859H78.2077C78.2079 59.8824 78.2075 59.8788 78.2077 59.8752C78.2042 59.8786 78.2013 59.8826 78.1979 59.8859ZM80.9381 32.3762C79.8082 31.2062 78.6982 31.1567 77.3483 32.0666C76.0683 32.9266 75.4575 33.7865 76.1774 35.4064C78.2274 40.0364 78.3579 44.9963 78.4479 49.9562C78.5078 53.2426 78.3973 56.529 78.2077 59.8752C82.5603 55.6373 84.5983 50.5317 84.6383 44.6066C84.6683 40.1466 84.2681 35.8262 80.9381 32.3762Z" fill="white"/>
</svg>
